<svg id="layer1" data-name="layer1" xmlns="http://www.w3.org/2000/svg" viewBox="0 0 1672.63 1836"><defs><style>.cls-1,.cls-3{fill:#fff;}.cls-1{fill-rule:evenodd;}.cls-2{fill:none;stroke:#fff;stroke-miterlimit:10;stroke-width:8px;}.cls-4{fill:#fff;}</style></defs><path class="cls-1" d="M973.56,660.05c9.34,44.86,1.93,101.55,0,148.1l-7.06,1.23c-14.18-20.28-13.74-49.29-26.8-72.81V734.1C929,758.33,946.85,789.63,951,806.91c8.61,36,1.47,93.49-7,124.65-4,2.16-3.59,2.78-9.88,3.7-14.79-26.15-21.7-117.66-24-153l4.23,70.34c2.11,58.5.32,119.25-14.1,165.38-22,7.16-23.88-31.76-24-53.07C876,904.41,861,848.49,859.3,793.34c-7.64,10.45,2.59,44.38,2.82,60.47.75,51.69,11.23,114.37,1.42,166.61-4.66,24.78,2.49,62.05-25.39,65.4-29.39,3.53-21.35-40.14-21.16-61.7.51-59.27-6.77-118.42-8.2-174.82q.57,41.75,1.14,83.49c.23,68.29-6.28,130.42-15.51,187.59l-8.46,2.47c-17.64-20.38-14.1-67.71-14.11-102.43l-7.05-198.7L762,889.6V1071c0,22.33,8.43,76.57-12.7,79-17.14-23.93-13.33-67.48-19.75-100-12.71-64.35-20.85-137-19.74-209.8L707,839c.27,73.73-1.61,144.85,11.28,211,8.76,45,17.71,99.25,9.87,149.33-25.84,12.11-28.36-23.06-32.44-43.19Q684.4,1066.08,673.11,976c-20.66-109.11-22.79-236.92-2.82-346.79,10.6-58.32,6.75-113.27,24-162.9,5.44-15.69,18.28-20.83,26.8-33.33,23.95-35.13,70.81-108.88,79-151.79h-1.41c-21.58,57.56-65.48,107.19-95.92,158l-8.46-1.24c-11.55-53.94,64.31-100,79-144.39L684.4,403.36c-10.39,13-17.16,29.74-33.86,37l-7,1.23-2.82-1.23c-22.93-81.46,77.55-117.33,100.15-171.54l-93.1,96.26c-14.86,16.41-35.63,28.5-50.78,44.43H591.3c-8.91-17.34,6.36-44.49,12.7-58l18.33-37c28.63-31.82,84.46-45.39,105.79-83.92l-48,38.26C639,297,593.54,323.21,544.75,344.12l-2.82-1.24C552.68,268.06,666.1,170,740.82,149.13l1.41-2.47-16.93-4.94-1.41-2.47c18.76-14.94,45.35-16.4,77.58-13.57l-2.82-11.11c35.18-8.09,54.34,4.43,74.76,18.51l8.46-8.63h5.64c27.39,42.48,25.41,88.35,9.88,141.92-5.51,19-14.86,45.8-9.88,71.58,11.21,57.93,40.85,98.5,53.61,150.56,7.12,29.08-5.6,61.38,7,83.92v2.47l1.41-140.69h-1.41L943.94,454q-9.18-20.35-18.34-40.72c-26.68-59.08-26.36-104.1-9.87-171.54,12.32-50.42,4-106.1-31-129.59L872,120.74c-49-30-105.24-7.9-153.75,11.11-4.33,4.84-9,6.76-11.28,13.57l8.46,3.71-33.85,16c-30.43,16.35-62.74,40.08-84.64,64.18-19.9,21.9-40.16,47.11-53.6,74l-14.1,35.79L485.51,368.8c-25.72,18.05-51.38,46.87-69.12,71.58-16.41,22.88-30.62,49-42.31,75.28l-12.7,39.49Q269.71,696.45,178,837.77c-33.77,58-60.09,118.24-74.76,192.52-7.56,38.34,1.73,81,24,95l15.52,1.23c-7.48,67.21-57.75,227,63.47,193.76-.11,78.23,11.91,238.82,71.94,261.63,14.18-.56,23.11-6.36,26.8-16l2.82-1.24c10.65,62.4,49.71,189.56,100.15,212.27,57.1-.32,29.22-80.13,28.21-120.94l31,82.68c22,53.21,45.4,112.37,79,156.74,13.51,17.84,36,58.57,76.17,43.19,37-14.16,14.7-81.41,7.06-113.54-14.77-62-18.33-130.62-32.45-199.93-9-44.08-17.45-93.43-16.92-141.92h1.41c24.77,125,101,228.71,172.08,315.93,15,18.46,63.9,84.93,103,61.71,29.53-17.55-16.31-129.95-26.8-160.44-33.88-98.46-56.06-200.27-86-304.82-16.29-56.81-34-120.68-39.5-182.65v-1.24c8.77.51,18.53,1.78,29.63-1.23,8.74-11.25,10.5-31,9.87-50.6,7.75,1.26,10.38,2.83,16.93,0,11.31-4.45,14.85-14.7,14.1-29.62l19.75,3.7c15.35-12.31,9.79-26.1,18.34-45.66v-2.47c48.75,27.2,63.53-14.42,62.06-62.94,10.07,3.73,10.8,8.63,26.8,8.64,18.83-16.06,20.65-57.83,19.75-90.09,8.12,2.2,9.47,4.8,21.16,4.94,26-24.65,20.77-85.68,15.51-127.12,9.87-.68,16.27.52,25.39-4.93,8.52-29.78,9-66.39,8.46-102.43l2.83-1.24,8.46,14.81,1.41,2.47,1.41-65.41ZM683,446.55l7,1.23,2.82,2.47q-12,44.43-24,88.86Q659.71,623,650.54,707c-10.17,49.26-23,93.78-36.67,135.75-3.68,1.6-4.92,2.2-11.28,2.47-9.93-15.36-9.56-36.1-14.11-56.77C565.26,682.94,629.76,603.92,652,516.89h1.42Zm-43.73,8.64L661.83,449v1.23C628,536,607.25,623.9,570.14,703.25c-9.12,19.5-23.39,69.25-39.49,80.21l-7,1.24c-20-33.25-25.34-94.21-12.7-138.22,9.49-33.05,35.62-59.17,50.78-88.86l62.06-127.11ZM598.35,419.4c7-7,17.37-10.68,24-18.51h2.82c-3.83,30.9-26.76,59.32-39.49,85.15-27,54.7-54.77,106.74-88.86,155.5l-55,67.88h-7c-14.28-23.58-20.57-87.13-7.05-117.24l43.73-40.73c29.15-33.2,85.56-100,100.14-140.69l4.24-2.47,8.46,9.88Zm-70.52-69.11c10.83-1,16.16,6.8,29.62,0h1.41l35.26-14.81c6.51,8-28.79,69.58-35.26,79-35.39,51.37-120.55,182.8-184.78,198.7-3.82,1-4.47.14-8.47-1.24C351.4,528,468,373.93,527.83,350.29ZM138.52,1108c-2.55,2.49,0,.91-4.23,2.47C102,1086.3,129,983.05,139.93,956.24c35.36-87,80.23-161.82,129.77-235.72l83.22-140.69c4.05,4.76-.44,16.13-1.41,23.45l4.23,16.05,9.87,6.17H376.9l28.21-16c.28,17.62-67.57,109.17-81.81,129.59-50.61,72.57-87,158.24-125.54,240.65C183.09,1011.05,160.4,1086.62,138.52,1108Zm31,202.39c-40.15-14.14-17.61-174.8-7.05-209.8q29.61-65.4,59.24-130.81c56.76-127.06,116.56-238.74,189-350.49l-1.41,60.47,2.82-1.24C430.44,729.43,387,783.9,367,827.89,318.21,935.64,281.55,1047.76,244.31,1166,235,1195.55,210,1324.68,169.55,1310.43Zm124.13,253c-6.05,4-6.8,6.13-18.34,6.17-33.63-44-58-119-59.24-187.59-.43-23.07-9.56-54.67,0-76.51,38.59-88.19,60.86-197.15,94.5-292.49C345.78,913.33,393,817.54,424.86,719.29c7.28-.19,17.27,1.41,25.39-2.47h1.41l40.9-44.43L494,737.8q-43.71,95-87.45,190.06c-30.51,68.57-55.2,140.55-74.76,217.2L314.84,1251.2C295.11,1349.81,311.91,1462.08,293.68,1563.43ZM415,1677c4.24,22.11,12.89,60.74,2.82,80.21l-4.23,1.24c-31.18-16.34-60.42-101.79-73.34-138.22C316.86,1554.35,303,1464,317.66,1377.08c13.08-77.66,7.51-150.85,24-222.15,20.74-89.83,51.53-171.4,86-249.29q26.08-59.85,52.19-119.71l15.51-34.55v-2.47L518,797l19.75-2.47c13.69-6.41,27.87-46.49,32.44-60.47,11.31,11.22-.6,45.29-4.23,54.3C545,840.29,527.65,894.05,509.49,950.07c-35.34,109-54.37,226.46-80.4,348q-7.75,75.9-15.52,151.8l-1.41,70.34C405.21,1557.07,408,1640.43,415,1677Zm187.61,127.11c5.89,26,25.35,86.56,16.92,109.84l-7,7.4c-26,3.35-35.76-19.26-46.55-33.32-31.58-41.17-51.75-91.83-74.76-140.69-20.78-44.13-47.31-94.48-59.24-143.16v-55.53c6.45-53.32-1.72-106,7-154.27,12.86-70.71,10.19-137.29,25.39-203.63C488.12,1087,514.94,986.59,539.11,889.6h1.41l35.27-82.69c12.13,13.54,4.26,37.3,21.15,46.9q-11.28,33.93-22.57,67.88l-19.74,106.13c-9.25,47.18.79,95-8.47,145.63-8,43.9-4.78,120.4,2.83,162.9,13.36,74.72,1.72,134,15.51,204.86Q583.54,1672.64,602.59,1804.08ZM777.49,1598q26.1,88.23,52.19,176.48c5.17,15.16,25.69,52.24,16.93,66.64-15.26,18-47.32-19.21-56.42-28.38C745.78,1768,708,1713,675.93,1658.45c-47.28-80.41-86.06-171.8-107.2-275.2l-5.64-122.18-1.41-86.39c1-73.7-.3-144.25,14.11-208.57l22.56-91.32,2.83-1.24,12.69-16,11.28-9.87q9.89-27.15,19.75-54.3l5.64,98.73q11.3,111.06,22.57,222.14,11.28,78.36,22.57,156.73C721.64,1382.82,746,1493.3,777.49,1598Zm31.3-748.68-.27-18.94C808.52,836.63,808.62,843,808.79,849.3Zm37.82-584.17-7.05,111.08c16.72,100,23.3,164.34,98.73,212.26h1.41l-36.67-42c-22.74-31.89-37.19-71.76-46.55-114.77-7.46-34.3-7.78-73.6-7.05-112.3C849.74,302.89,854.55,277.85,846.61,265.13Z" transform="translate(-100.66 -106)"/><path class="cls-1" d="M1677.83,947.56c-29.67-39.87-79.32-85.74-122.12-111.93-52.9-32.38-115-48.36-175-73.27-26.45-11-55.12-18.81-83.44-30.53-14.73-6.1-33.28-16.19-50.88-18.32,9.9-5.94,66.93-.67,79.37,2h44.78c51,11.12,158.44,8.39,179.1-22.39,19.58-29.18-5-66.64-22.39-79.37-37.25-27.25-103.34-40.46-148.57-59-17-7-37.22-8-50.88-18.32-3.88-3.2,6.62-11.76,8.14-16.28,4.24-12.66-1.86-32.34-6.11-38.67-15-22.38-72.38-40.55-107.86-28.5l-48.85,24.43c-13.83,5.75-33,5.94-44.78,14.24h-4.07q5.1-23.4,10.18-46.81c13.74-4.74,30.15-2.33,46.81-6.1,38-8.6,81.67-11.32,118-20.35,35.39-8.79,64-6.66,73.27-40.71,15-55-39.46-73.59-73.27-83.44-12.57-3.67-31.84-9.06-46.81-4.07-8.33,2.77-21,10.89-28.49,16.28l-12.21,14.24c-9.72,4.9-24.11.59-32.56,6.11h-8.15c6-20.26,38-45.49,32.57-71.23-8.82-41.71-53.82-67.63-87.52-85.48-9.14-4.85-23.86-16.4-40.7-12.21-30.17,7.49-49.08,21.37-67.16,40.7.12,31,25.47,51,44.77,63.09,0,21.47-1.29,74.8-10.17,87.52-12.43,9.51-35.38,5.81-52.92,10.17-38.52,9.58-85.38,15.11-126.18,20.36-14.86,1.9-35.53-25.58-57-6.11-1.4,1.56-2.68,4.54-4.07,6.11.08,30.59,18.91,40.05,36.63,52.91,48.6,35.25,108.12,35.19,187.24,28.5-.68,18.25-6.27,30.59-8.14,46.81-21.63,1.64-45.11,7.33-65.12,12.21-20.82,5.07-43.59,3.91-63.1,8.14-24.33,5.27-47.27-15.2-65.12-2-15.61,12.74-.31,33.85,6.1,42.74,14.29,19.81,32.88,30.69,59,38.67,11.5,3.51,25.21.61,34.6,6.11H935v2c-31.57,19.32-90,64-130.26,69.2,7.73,4.32,30-1.23,40.71-4.07,29.94-7.92,114.13-24.72,132.29-40.7h2c-.56,9.38-4.5,30.94-10.17,36.63-7.27,7.28-44.34,10.13-57,14.25-41.08,13.37-85.33,20.57-128.22,34.59-20,6.53-43.7,17.22-67.16,18.32.13-6.32.29-12.84-2-16.28-.67-2-1.35-4.07-2-6.11-24.4,3-69.91,19.47-81.41,34.6-3.7,4.88-4.37,11.63-8.14,16.28.25,38.77,37.57,53.07,65.13,65.13,17.15,7.51,35.68,15.45,57,20.35,26.46,6.1,102-28.41,122.12-36.63,18.05-7.4,40.37-9.13,55-20.35h2c-10.46,43.18-47.4,100.77-69.2,136.36C777.36,1065.14,703,1152.61,576.77,1232.5c-1.31,3.51-.4,2-2,4.07.17,9.15,1.28,11.1,4.07,16.28,32.26,6,60.53-6.87,83.45-16.28,35.63-14.64,70.84-25.23,101.76-44.78,27.06-17.1,48.78-42.23,75.3-59v-2c14.25,15.1,15.59,38.15,36.64,46.81,9.9,4.08,27.67,2.75,38.67,0,30-7.49,63.32-15.39,91.58-24.42,11.14-3.55,22.16-2.26,30.53-8.14h2c-6,23.16-22.42,41.57-34.59,59-41.07,58.9-93.54,106.09-162.82,136.36-22.64,9.89-48.67,14.93-69.2,26.46-2,10.42-.55,12.7,4.07,20.35,109.18,24.35,244.29-28.6,287-85.48,12.93-17.23,25.18-48.75,38.67-63.09,9.81-1,56.59,34.41,69.19,42.74,31.33,20.71,63.08,37.51,93.62,59,30,21.12,58.75,47,91.59,65.13,31.35,17.35,92.09,37.81,116-2,25.78-43-14.35-99.73-30.53-122.11-11.92-16.49-26.19-37.38-42.74-48.84-52.37-36.27-186.34-60.88-276.79-59,1.15-14.22,6.81-35.18,14.25-44.77,6.11-13.31,39.23-10.19,55-14.25,29.32-7.57,65.17-9.22,95.65-16.28,13.6-3.15,24.75.4,36.64-4.07,11-4.15,17.83-14.07,26.45-20.35,7.78-52.06-1.05-61.91-38.67-81.41-18.85-9.77-36.57-17.12-67.16-16.28-5.11,5.06-13.21,7.13-18.31,12.21-6,6-9.42,19.92-16.29,24.42-13.26,8.7-34.5,5.13-46.81,14.25h-4.07c.82-23.16,7-42.56-4.07-59-5.43-8.09-16.56-12.33-22.38-20.36L1203.62,915c13-5.48,26.15-6.57,36.63-14.25,6.6-4.83,8.59-14.55,14.25-20.35l-2-24.42c-10.41-20.87-62.64-38.09-95.65-28.49-27.55,8-50.22,25.65-77.34,34.59l-52.92,10.18h-18.31L1057.08,744l32.57-10.17c18,17.21,53.25,28.84,75.3,42.74,42.81,27,84.83,56.27,126.18,85.47,69.89,49.36,131.54,109.38,199.45,160.79,29,21.93,51.92,53.94,81.41,75.3,31,22.44,116.27,60.56,150.61,12.21C1762.35,1054.42,1699.75,977,1677.83,947.56Zm-612.61,71.24c-1.44,7.56-2.21,20.66-6.1,26.45v4.08c-22.46,4.79-95,14.35-109.91,24.42h-2c10.06-28.58,73.25-48.49,95.66-69.2Zm-26.46-63.1c-10.9,16.55-31,28.83-46.81,40.71-19.48,14.62-37.07,34.53-57,48.84-9.87,7.09-21.08,11-28.49,20.36H902.4c24.72-47.7,56.59-91.61,79.38-142.47C1000.33,934.41,1017.6,946.28,1038.76,955.7Zm101.77-313.42c-18,4.62-40.75,1.25-55,10.18h-2c.47-8.16,10.66-48.28,14.25-50.88l36.63-8.15c37.69-12.14,80.57-22.31,118-34.59,16.39-5.38,36.25-5,48.85-14.25,30.12,2.14,57.22,40.88,79.37,54.95-6.4,9.81-53.48,8.46-69.2,12.21C1256.34,624.93,1194.27,628.5,1140.53,642.28Z" transform="translate(-100.66 -106)"/><path class="cls-2" d="M1677.83,947.56c-29.67-39.87-79.32-85.74-122.12-111.93-52.9-32.38-115-48.36-175-73.27-26.45-11-55.12-18.81-83.44-30.53-14.73-6.1-33.28-16.19-50.88-18.32,9.9-5.94,66.93-.67,79.37,2h44.78c51,11.12,158.44,8.39,179.1-22.39,19.58-29.18-5-66.64-22.39-79.37-37.25-27.25-103.34-40.46-148.57-59-17-7-37.22-8-50.88-18.32-3.88-3.2,6.62-11.76,8.14-16.28,4.24-12.66-1.86-32.34-6.11-38.67-15-22.38-72.38-40.55-107.86-28.5l-48.85,24.43c-13.83,5.75-33,5.94-44.78,14.24h-4.07q5.1-23.4,10.18-46.81c13.74-4.74,30.15-2.33,46.81-6.1,38-8.6,81.67-11.32,118-20.35,35.39-8.79,64-6.66,73.27-40.71,15-55-39.46-73.59-73.27-83.44-12.57-3.67-31.84-9.06-46.81-4.07-8.33,2.77-21,10.89-28.49,16.28l-12.21,14.24c-9.72,4.9-24.11.59-32.56,6.11h-8.15c6-20.26,38-45.49,32.57-71.23-8.82-41.71-53.82-67.63-87.52-85.48-9.14-4.85-23.86-16.4-40.7-12.21-30.17,7.49-49.08,21.37-67.16,40.7.12,31,25.47,51,44.77,63.09,0,21.47-1.29,74.8-10.17,87.52-12.43,9.51-35.38,5.81-52.92,10.17-38.52,9.58-85.38,15.11-126.18,20.36-14.86,1.9-35.53-25.58-57-6.11-1.4,1.56-2.68,4.54-4.07,6.11.08,30.59,18.91,40.05,36.63,52.91,48.6,35.25,108.12,35.19,187.24,28.5-.68,18.25-6.27,30.59-8.14,46.81-21.63,1.64-45.11,7.33-65.12,12.21-20.82,5.07-43.59,3.91-63.1,8.14-24.33,5.27-47.27-15.2-65.12-2-15.61,12.74-.31,33.85,6.1,42.74,14.29,19.81,32.88,30.69,59,38.67,11.5,3.51,25.21.61,34.6,6.11H935v2c-31.57,19.32-90,64-130.26,69.2,7.73,4.32,30-1.23,40.71-4.07,29.94-7.92,114.13-24.72,132.29-40.7h2c-.56,9.38-4.5,30.94-10.17,36.63-7.27,7.28-44.34,10.13-57,14.25-41.08,13.37-85.33,20.57-128.22,34.59-20,6.53-43.7,17.22-67.16,18.32.13-6.32.29-12.84-2-16.28-.67-2-1.35-4.07-2-6.11-24.4,3-69.91,19.47-81.41,34.6-3.7,4.88-4.37,11.63-8.14,16.28.25,38.77,37.57,53.07,65.13,65.13,17.15,7.51,35.68,15.45,57,20.35,26.46,6.1,102-28.41,122.12-36.63,18.05-7.4,40.37-9.13,55-20.35h2c-10.46,43.18-47.4,100.77-69.2,136.36C777.36,1065.14,703,1152.61,576.77,1232.5c-1.31,3.51-.4,2-2,4.07.17,9.15,1.28,11.1,4.07,16.28,32.26,6,60.53-6.87,83.45-16.28,35.63-14.64,70.84-25.23,101.76-44.78,27.06-17.1,48.78-42.23,75.3-59v-2c14.25,15.1,15.59,38.15,36.64,46.81,9.9,4.08,27.67,2.75,38.67,0,30-7.49,63.32-15.39,91.58-24.42,11.14-3.55,22.16-2.26,30.53-8.14h2c-6,23.16-22.42,41.57-34.59,59-41.07,58.9-93.54,106.09-162.82,136.36-22.64,9.89-48.67,14.93-69.2,26.46-2,10.42-.55,12.7,4.07,20.35,109.18,24.35,244.29-28.6,287-85.48,12.93-17.23,25.18-48.75,38.67-63.09,9.81-1,56.59,34.41,69.19,42.74,31.33,20.71,63.08,37.51,93.62,59,30,21.12,58.75,47,91.59,65.13,31.35,17.35,92.09,37.81,116-2,25.78-43-14.35-99.73-30.53-122.11-11.92-16.49-26.19-37.38-42.74-48.84-52.37-36.27-186.34-60.88-276.79-59,1.15-14.22,6.81-35.18,14.25-44.77,6.11-13.31,39.23-10.19,55-14.25,29.32-7.57,65.17-9.22,95.65-16.28,13.6-3.15,24.75.4,36.64-4.07,11-4.15,17.83-14.07,26.45-20.35,7.78-52.06-1.05-61.91-38.67-81.41-18.85-9.77-36.57-17.12-67.16-16.28-5.11,5.06-13.21,7.13-18.31,12.21-6,6-9.42,19.92-16.29,24.42-13.26,8.7-34.5,5.13-46.81,14.25h-4.07c.82-23.16,7-42.56-4.07-59-5.43-8.09-16.56-12.33-22.38-20.36L1203.62,915c13-5.48,26.15-6.57,36.63-14.25,6.6-4.83,8.59-14.55,14.25-20.35l-2-24.42c-10.41-20.87-62.64-38.09-95.65-28.49-27.55,8-50.22,25.65-77.34,34.59l-52.92,10.18h-18.31L1057.08,744l32.57-10.17c18,17.21,53.25,28.84,75.3,42.74,42.81,27,84.83,56.27,126.18,85.47,69.89,49.36,131.54,109.38,199.45,160.79,29,21.93,51.92,53.94,81.41,75.3,31,22.44,116.27,60.56,150.61,12.21C1762.35,1054.42,1699.75,977,1677.83,947.56Zm-612.61,71.24c-1.44,7.56-2.21,20.66-6.1,26.45v4.08c-22.46,4.79-95,14.35-109.91,24.42h-2c10.06-28.58,73.25-48.49,95.66-69.2Zm-26.46-63.1c-10.9,16.55-31,28.83-46.81,40.71-19.48,14.62-37.07,34.53-57,48.84-9.87,7.09-21.08,11-28.49,20.36H902.4c24.72-47.7,56.59-91.61,79.38-142.47C1000.33,934.41,1017.6,946.28,1038.76,955.7Zm101.77-313.42c-18,4.62-40.75,1.25-55,10.18h-2c.47-8.16,10.66-48.28,14.25-50.88l36.63-8.15c37.69-12.14,80.57-22.31,118-34.59,16.39-5.38,36.25-5,48.85-14.25,30.12,2.14,57.22,40.88,79.37,54.95-6.4,9.81-53.48,8.46-69.2,12.21C1256.34,624.93,1194.27,628.5,1140.53,642.28Z" transform="translate(-100.66 -106)"/><path class="cls-3" d="M996.19,1715.31c-4.22,0-9.13-2.49-14.62-7.41a138.39,138.39,0,0,1-17.28-19.39c-6-8-12.07-16.8-17.95-26.22s-11.34-18.89-16.25-28.17c-4.65-8.77-8.66-16.75-11.93-23.76L891.39,1697c-1.34,4.38-3.48,7.54-6.37,9.37a22,22,0,0,1-9.31,3.29,85.07,85.07,0,0,1-9.72.57h-.78l.32-.71c2.43-5.23,4.92-11.25,7.41-17.89s5.39-14.51,9-24.35c3.45-9.51,7.54-21.19,12.18-34.71s10.22-29.92,16.65-48.86c6.77-19.89,14.44-42.36,22.83-66.79.53-1.42,1.24-3.42,2.24-6.3a22.55,22.55,0,0,0,1.37-7.25,7.41,7.41,0,0,0-1.3-4.6c-.83-1.08-2.49-1.62-4.92-1.62-4.34,0-8.61,1.79-12.69,5.34a53.94,53.94,0,0,0-11.1,13.73,83.59,83.59,0,0,0-7.65,17.26,53.74,53.74,0,0,0-2.78,15.81,29.68,29.68,0,0,0,1.37,9.36l.22.66h-.69c-6.29,0-10.8-1.62-13.41-4.81a17.88,17.88,0,0,1-3.89-11.65,38,38,0,0,1,5.67-19.3A75.2,75.2,0,0,1,900.51,1506a81.69,81.69,0,0,1,18.6-12.82c6.48-3.19,12.44-4.81,17.72-4.81s8.77,1.49,10.64,4.43a17.48,17.48,0,0,1,2.74,9.51,28.64,28.64,0,0,1-.71,6.27c-.48,2.08-1,4.07-1.55,5.91l-22.68,73.45a49.23,49.23,0,0,1,8.6-8.19c4.18-3.16,8.84-6.83,13.84-10.91,8.34-6.67,17.42-14.57,27-23.5s18.83-18.41,27.54-28.24a224.56,224.56,0,0,0,21.8-28.5l.36-.58.44.53c1,1.2,1.68,3.21,2.07,6.13a52.49,52.49,0,0,1,.57,6.51c0,5.86-2.43,12.37-7.23,19.32a144.77,144.77,0,0,1-18.68,21.5c-7.63,7.35-16.13,14.71-25.24,21.87s-18.22,14-27,20.31-16.61,11.69-23.56,16.27c5.52,9.37,10.94,18.37,16.13,26.74,5.3,8.56,11.14,17,17.34,25.16a269.39,269.39,0,0,0,21.94,25.16,397.82,397.82,0,0,0,30.48,27.68l.31.26-.19.36a18.85,18.85,0,0,1-6.32,6.62A16.44,16.44,0,0,1,996.19,1715.31Z" transform="translate(-100.66 -106)"/><path class="cls-4" d="M1024.47,1488.85q1.4,1.68,2,5.88a53.33,53.33,0,0,1,.56,6.44q0,8.68-7.14,19a142.73,142.73,0,0,1-18.62,21.42q-11.49,11.05-25.2,21.84t-27,20.3q-13.31,9.52-23.94,16.52,8.4,14.28,16.38,27.16t17.36,25.2a271.82,271.82,0,0,0,22,25.2,398.5,398.5,0,0,0,30.52,27.72,18.39,18.39,0,0,1-6.16,6.44,15.93,15.93,0,0,1-9,2.8q-6.16,0-14.28-7.28a136.82,136.82,0,0,1-17.22-19.32q-9.11-12-17.92-26.18t-16.24-28.14q-7.42-14-12.46-24.92l-27.16,87.92q-2,6.43-6.16,9.1a21.49,21.49,0,0,1-9.1,3.22,85.9,85.9,0,0,1-9.66.56q3.63-7.85,7.42-17.92t9-24.36q5.18-14.28,12.18-34.72t16.66-48.86q9.66-28.42,22.82-66.78c.56-1.49,1.3-3.59,2.24-6.3a23.05,23.05,0,0,0,1.4-7.42,7.86,7.86,0,0,0-1.4-4.9c-.94-1.22-2.71-1.82-5.32-1.82q-6.72,0-13,5.46a54.21,54.21,0,0,0-11.2,13.86,83.81,83.81,0,0,0-7.7,17.36,54.13,54.13,0,0,0-2.8,16,29.83,29.83,0,0,0,1.4,9.52q-9.24,0-13-4.62a17.32,17.32,0,0,1-3.78-11.34,37.21,37.21,0,0,1,5.6-19,74.47,74.47,0,0,1,14.42-17.5,80.77,80.77,0,0,1,18.48-12.74q9.66-4.75,17.5-4.76,7.56,0,10.22,4.2a17,17,0,0,1,2.66,9.24,28.12,28.12,0,0,1-.7,6.16q-.71,3.08-1.54,5.88L924,1590.49a46.51,46.51,0,0,1,10.22-10.36q6.3-4.76,13.86-10.92,12.6-10.08,27-23.52t27.58-28.28a224.49,224.49,0,0,0,21.84-28.56m-.11-1.7-.74,1.16a223.59,223.59,0,0,1-21.74,28.43c-8.71,9.82-18,19.31-27.51,28.22s-18.64,16.81-27,23.47c-5,4.08-9.66,7.74-13.83,10.9a51.81,51.81,0,0,0-7.12,6.44l22-71.15c.56-1.86,1.09-3.86,1.56-5.95a29.12,29.12,0,0,0,.73-6.38,18,18,0,0,0-2.82-9.78c-2-3.09-5.68-4.66-11.06-4.66s-11.39,1.63-17.94,4.86a82.13,82.13,0,0,0-18.71,12.9,75.77,75.77,0,0,0-14.61,17.73,38.4,38.4,0,0,0-5.74,19.55,18.42,18.42,0,0,0,4,12c2.71,3.31,7.35,5,13.8,5H899l-.44-1.32a29,29,0,0,1-1.35-9.2,53.69,53.69,0,0,1,2.75-15.66,83.17,83.17,0,0,1,7.61-17.16,53.74,53.74,0,0,1,11-13.61c4-3.46,8.16-5.21,12.37-5.21,2.27,0,3.79.48,4.53,1.43a6.92,6.92,0,0,1,1.19,4.29,21.91,21.91,0,0,1-1.35,7.09c-1,2.88-1.7,4.87-2.23,6.28-8.39,24.45-16.07,46.92-22.83,66.81-6,17.7-11.62,34.13-16.66,48.85-4.63,13.53-8.73,25.2-12.17,34.71-3.57,9.83-6.5,17.8-9,24.35s-5,12.63-7.39,17.85l-.66,1.42H866a85.8,85.8,0,0,0,9.77-.57,22.32,22.32,0,0,0,9.52-3.37c3-1.9,5.21-5.14,6.58-9.65l26.4-85.44c3.17,6.73,7,14.33,11.38,22.62,4.92,9.28,10.4,18.77,16.28,28.2s11.93,18.26,18,26.25a138.2,138.2,0,0,0,17.35,19.46c5.58,5,10.61,7.54,15,7.54a16.94,16.94,0,0,0,9.51-3,19.43,19.43,0,0,0,6.49-6.8l.39-.72-.63-.52a401,401,0,0,1-30.45-27.65A272.86,272.86,0,0,1,959.6,1652c-6.19-8.12-12-16.58-17.3-25.12-5.11-8.25-10.46-17.1-15.89-26.32,6.86-4.53,14.65-9.91,23.18-16,8.83-6.32,17.93-13.16,27.06-20.33a333,333,0,0,0,25.27-21.9,144.19,144.19,0,0,0,18.75-21.58c4.86-7,7.32-13.63,7.32-19.6a53.26,53.26,0,0,0-.57-6.57c-.41-3-1.12-5.12-2.18-6.39l-.88-1.06Z" transform="translate(-100.66 -106)"/><path class="cls-3" d="M1064.23,1704.11a21.1,21.1,0,0,1-15-5.88c-4.1-3.91-6.17-9.92-6.17-17.86a61.44,61.44,0,0,1,4.51-21.88,110.57,110.57,0,0,1,12.38-23.07,131.33,131.33,0,0,1,17.84-20.8,90.67,90.67,0,0,1,21.12-15.06,49.06,49.06,0,0,1,22.21-5.65c7.35,0,13.58,2,18.51,5.84a19.06,19.06,0,0,1,7.47,15.66c0,4.82-1.35,8.16-4,9.93s-6,2.61-10.21,2.61h-.64l.15-.62c.37-1.5.7-3.13,1-4.86a30.62,30.62,0,0,0,.42-4.82,19.11,19.11,0,0,0-3-10.79c-2-2.91-5.39-4.39-10.22-4.39-5.11,0-10.38,1.81-15.68,5.37a75.38,75.38,0,0,0-15.58,14.47,126.72,126.72,0,0,0-13.39,19.66,121.07,121.07,0,0,0-9.2,20.91,60.65,60.65,0,0,0-3.33,18.33c0,7,2.31,10.42,7.06,10.42,4.16,0,8.76-2,13.69-5.91a114.55,114.55,0,0,0,15.47-15.34c5.26-6.18,10.38-12.71,15.23-19.43s9.14-12.86,12.87-18.46c1.17-1.77,1.49-1.9,1.82-1.9a34,34,0,0,1,4.49,1.14,17,17,0,0,1,4.76,2.31,4.81,4.81,0,0,1,2.17,4c0,1.79-.85,4.11-2.59,7.11s-3.6,6.31-5.59,9.93-3.91,7.48-5.59,11.3a26.56,26.56,0,0,0-2.47,10.58,16.5,16.5,0,0,0,2.17,8,7.18,7.18,0,0,0,6.85,3.8c4.89,0,11.46-3.68,19.54-10.93s16.49-18.43,24.82-33.06l.33-.57,3.49,3.49-.12.31a100.62,100.62,0,0,1-15.19,26.73,78.85,78.85,0,0,1-19.87,18c-7.05,4.33-14.06,6.52-20.84,6.52-7,0-12.3-2.14-15.65-6.35a21.65,21.65,0,0,1-5-13.75,28.94,28.94,0,0,1,.28-3.85c.11-.8.21-1.62.32-2.45-7.58,10.06-14.61,17.77-20.93,22.92C1078.15,1701.34,1071.22,1704.11,1064.23,1704.11Z" transform="translate(-100.66 -106)"/><path class="cls-4" d="M1121.07,1594.41q10.92,0,18.2,5.74a18.47,18.47,0,0,1,7.28,15.26q0,7-3.78,9.52t-9.94,2.52c.37-1.49.7-3.13,1-4.9a31.59,31.59,0,0,0,.42-4.9,19.51,19.51,0,0,0-3.08-11.06q-3.09-4.62-10.64-4.62-7.85,0-16,5.46a75.05,75.05,0,0,0-15.68,14.56,127,127,0,0,0-13.44,19.74,119.93,119.93,0,0,0-9.24,21,60.73,60.73,0,0,0-3.36,18.48q0,10.92,7.56,10.92,6.43,0,14-6a114.3,114.3,0,0,0,15.54-15.4q8-9.37,15.26-19.46t12.88-18.48c.74-1.12,1.21-1.68,1.4-1.68a34.15,34.15,0,0,1,4.34,1.12,16.55,16.55,0,0,1,4.62,2.24,4.3,4.3,0,0,1,2,3.64q0,2.52-2.52,6.86t-5.6,9.94q-3.09,5.59-5.6,11.34a26.92,26.92,0,0,0-2.52,10.78,16.86,16.86,0,0,0,2.24,8.26,7.68,7.68,0,0,0,7.28,4.06q7.56,0,19.88-11.06t24.92-33.18l2.8,2.8a99.81,99.81,0,0,1-15.12,26.6,78,78,0,0,1-19.74,17.92q-10.5,6.43-20.58,6.44-10.36,0-15.26-6.16a21.13,21.13,0,0,1-4.9-13.44,28.31,28.31,0,0,1,.28-3.78c.18-1.4.37-2.85.56-4.34q-12,16.24-22,24.36t-20.3,8.12a20.52,20.52,0,0,1-14.7-5.74q-6-5.74-6-17.5a60.5,60.5,0,0,1,4.48-21.7,109.52,109.52,0,0,1,12.32-23,129.57,129.57,0,0,1,17.78-20.72,89.39,89.39,0,0,1,21-15,48.36,48.36,0,0,1,22-5.6m0-1a49.6,49.6,0,0,0-22.43,5.7,91,91,0,0,0-21.24,15.15,132.48,132.48,0,0,0-17.92,20.88,111.51,111.51,0,0,0-12.43,23.17,62,62,0,0,0-4.54,22.06c0,8.08,2.13,14.21,6.33,18.22a21.57,21.57,0,0,0,15.39,6c7.11,0,14.15-2.81,20.93-8.35,6-4.92,12.7-12.15,19.87-21.52,0,.2,0,.4-.07.6a28.28,28.28,0,0,0-.29,3.91,22.14,22.14,0,0,0,5.12,14.06c3.44,4.34,8.84,6.54,16,6.54,6.87,0,14-2.22,21.1-6.59a79.17,79.17,0,0,0,20-18.15,101.17,101.17,0,0,0,15.27-26.86l.24-.61-.47-.46-2.8-2.8-.92-.93-.65,1.14c-8.31,14.58-16.62,25.66-24.72,32.93s-14.45,10.81-19.21,10.81a6.71,6.71,0,0,1-6.41-3.54,16,16,0,0,1-2.11-7.78,26.13,26.13,0,0,1,2.43-10.38c1.67-3.8,3.54-7.59,5.56-11.26s3.87-6.95,5.59-9.92,2.66-5.48,2.66-7.36a5.26,5.26,0,0,0-2.38-4.45,17.33,17.33,0,0,0-4.9-2.39,35.35,35.35,0,0,0-4.48-1.15h-.16c-.65,0-1.13.45-2.24,2.12-3.73,5.59-8,11.8-12.85,18.45s-10,13.23-15.21,19.4a113.55,113.55,0,0,1-15.41,15.27c-4.83,3.84-9.33,5.8-13.37,5.8-1.63,0-6.56,0-6.56-9.92a59.94,59.94,0,0,1,3.31-18.17,120.11,120.11,0,0,1,9.16-20.83,126.19,126.19,0,0,1,13.34-19.58,74.55,74.55,0,0,1,15.46-14.37c5.22-3.51,10.41-5.29,15.41-5.29,4.72,0,7.93,1.36,9.81,4.17a18.63,18.63,0,0,1,2.91,10.51,30.79,30.79,0,0,1-.41,4.74c-.27,1.72-.59,3.34-1,4.82l-.31,1.24h1.28c4.29,0,7.82-.91,10.49-2.69s4.23-5.35,4.23-10.35a19.51,19.51,0,0,0-7.66-16.05c-5-3.95-11.35-5.95-18.82-5.95Z" transform="translate(-100.66 -106)"/><path class="cls-3" d="M1291.3,1696.55c-6.64,0-11.71-1.75-15-5.19a18.26,18.26,0,0,1-5-13.23,40.49,40.49,0,0,1,2.13-12.48c1.38-4.24,2.75-8.71,4.05-13.28a48.05,48.05,0,0,0,1.94-13.16c0-5.06-1-8.56-3-10.41a11,11,0,0,0-7.65-2.81c-5.64,0-11.47,2.36-17.32,7a101.77,101.77,0,0,0-17.28,18.11c-5.58,7.35-10.85,15-15.65,22.78s-9.11,14.77-12.88,21l-.14.24h-.29a24.61,24.61,0,0,1-8.71-1.57,14.06,14.06,0,0,1-6.53-4.8l-.1-.13v-.16c0-.64.31-2.26,3-8.87,2-4.88,4.28-10.9,6.86-17.91s4.94-14.37,7-21.8a77.61,77.61,0,0,0,3.06-20.3v-.19l.13-.14a18.9,18.9,0,0,1,5.46-4,16.3,16.3,0,0,1,7.79-2c5.35,0,8.06,2.61,8.06,7.78,0,3-.85,8.09-2.53,15.09-1.41,5.9-3.18,12.11-5.28,18.5,4.52-6.63,9.53-13.27,14.91-19.77a106.22,106.22,0,0,1,20.11-19c7.15-5.08,14.41-7.65,21.57-7.65,7.43,0,12.9,2.71,16.25,8.07a32.79,32.79,0,0,1,5,17.63,45.89,45.89,0,0,1-2.83,16.27c-1.87,5-3.8,9.77-5.75,14.3a34.7,34.7,0,0,0-2.9,13.67c0,3.77.76,6.43,2.24,7.9a7.66,7.66,0,0,0,5.66,2.24c4.52,0,9.11-2.17,13.66-6.45a90.6,90.6,0,0,0,13.5-16.57,186.75,186.75,0,0,0,11.59-20.38l.34-.69,3.78,4.46-.13.28a143,143,0,0,1-13.2,24.45,66.69,66.69,0,0,1-16.09,16.93A33.33,33.33,0,0,1,1291.3,1696.55Z" transform="translate(-100.66 -106)"/><path class="cls-4" d="M1279.82,1608.69q10.92,0,15.82,7.84a32.07,32.07,0,0,1,4.9,17.36,45.16,45.16,0,0,1-2.8,16.1q-2.79,7.42-5.74,14.28a34.88,34.88,0,0,0-2.94,13.86c0,3.92.8,6.67,2.38,8.26a8.16,8.16,0,0,0,6,2.38q7,0,14-6.58a90.78,90.78,0,0,0,13.58-16.66,186.42,186.42,0,0,0,11.62-20.44l3.08,3.64a141.62,141.62,0,0,1-13.16,24.36,65.83,65.83,0,0,1-16,16.8,32.63,32.63,0,0,1-19.32,6.16q-9.79,0-14.7-5a17.73,17.73,0,0,1-4.9-12.88,39.7,39.7,0,0,1,2.1-12.32q2.1-6.43,4.06-13.3a48.2,48.2,0,0,0,2-13.3q0-7.85-3.22-10.78a11.37,11.37,0,0,0-8-2.94q-8.67,0-17.64,7.14a102.06,102.06,0,0,0-17.36,18.2q-8.4,11.06-15.68,22.82t-12.88,21a24.06,24.06,0,0,1-8.54-1.54,13.55,13.55,0,0,1-6.3-4.62c0-.93,1-3.83,2.94-8.68s4.25-10.83,6.86-17.92,5-14.37,7-21.84a77.42,77.42,0,0,0,3.08-20.44,18.76,18.76,0,0,1,5.32-3.92,15.72,15.72,0,0,1,7.56-2q7.56,0,7.56,7.28,0,4.48-2.52,15t-6.44,22a262.73,262.73,0,0,1,16.94-22.82,105.53,105.53,0,0,1,20-18.9q10.65-7.56,21.28-7.56m0-1c-7.27,0-14.62,2.6-21.86,7.74a106.94,106.94,0,0,0-20.21,19.08c-4.64,5.61-9,11.32-13,17,1.65-5.28,3.08-10.41,4.26-15.33,1.71-7.14,2.54-12.12,2.54-15.21,0-5.42-3-8.28-8.56-8.28a16.83,16.83,0,0,0-8,2.08,19.52,19.52,0,0,0-5.6,4.15l-.25.28v.37a77,77,0,0,1-3,20.17c-2,7.42-4.39,14.74-7,21.76s-4.88,13-6.85,17.89c-2.67,6.62-3,8.32-3,9.06v.32l.2.27a14.45,14.45,0,0,0,6.75,5,25,25,0,0,0,8.89,1.61h.57l.29-.48c3.77-6.23,8.1-13.29,12.87-21s10.06-15.4,15.63-22.74a101.09,101.09,0,0,1,17.19-18c5.76-4.59,11.49-6.92,17-6.92a10.3,10.3,0,0,1,7.31,2.68c1.92,1.75,2.89,5.13,2.89,10a47.42,47.42,0,0,1-1.92,13c-1.3,4.57-2.67,9-4.05,13.27a41,41,0,0,0-2.15,12.63,18.73,18.73,0,0,0,5.19,13.57c3.44,3.55,8.63,5.35,15.41,5.35a33.75,33.75,0,0,0,19.9-6.35,67,67,0,0,0,16.21-17,143.29,143.29,0,0,0,13.25-24.53l.25-.57-.4-.47-3.08-3.64-1-1.17-.68,1.38a188.32,188.32,0,0,1-11.55,20.33,90.8,90.8,0,0,1-13.43,16.48c-4.45,4.19-8.93,6.31-13.32,6.31a7.1,7.1,0,0,1-5.31-2.09c-1.38-1.38-2.09-3.92-2.09-7.55a34.22,34.22,0,0,1,2.86-13.47c1.95-4.54,3.89-9.36,5.76-14.32a46.45,46.45,0,0,0,2.86-16.45,33.28,33.28,0,0,0-5-17.89c-3.45-5.52-9.06-8.31-16.67-8.31Z" transform="translate(-100.66 -106)"/><path class="cls-3" d="M1372.78,1704.11a21.07,21.07,0,0,1-15-5.88c-4.1-3.91-6.18-9.92-6.18-17.86a61.44,61.44,0,0,1,4.51-21.88,111,111,0,0,1,12.38-23.07,131.39,131.39,0,0,1,17.85-20.8,90.47,90.47,0,0,1,21.12-15.06,49.05,49.05,0,0,1,22.2-5.65c7.36,0,13.58,2,18.51,5.84a19,19,0,0,1,7.47,15.66c0,4.82-1.35,8.16-4,9.93s-6,2.61-10.22,2.61h-.64l.16-.62c.37-1.5.69-3.13,1-4.86a31.78,31.78,0,0,0,.41-4.82,19.18,19.18,0,0,0-3-10.79c-2-2.91-5.39-4.39-10.23-4.39-5.1,0-10.38,1.81-15.68,5.37a75.09,75.09,0,0,0-15.57,14.47,126,126,0,0,0-13.39,19.66,120.31,120.31,0,0,0-9.2,20.91,60.39,60.39,0,0,0-3.34,18.33c0,7,2.31,10.42,7.06,10.42,4.16,0,8.77-2,13.69-5.91a114,114,0,0,0,15.47-15.34c5.26-6.18,10.39-12.71,15.24-19.43s9.13-12.86,12.87-18.46c1.17-1.77,1.49-1.9,1.81-1.9a33.19,33.19,0,0,1,4.49,1.14,17,17,0,0,1,4.76,2.31,4.8,4.8,0,0,1,2.17,4c0,1.79-.85,4.11-2.59,7.11s-3.6,6.31-5.59,9.93-3.9,7.48-5.58,11.3a26.58,26.58,0,0,0-2.48,10.58,16.41,16.41,0,0,0,2.18,8,7.17,7.17,0,0,0,6.84,3.8c4.89,0,11.47-3.68,19.55-10.93s16.48-18.43,24.82-33.06l.32-.57,3.5,3.49-.12.31a100.64,100.64,0,0,1-15.2,26.73,78.68,78.68,0,0,1-19.87,18c-7,4.33-14.06,6.52-20.84,6.52-7,0-12.3-2.14-15.65-6.35a21.71,21.71,0,0,1-5-13.75,29.07,29.07,0,0,1,.29-3.85c.1-.8.21-1.62.32-2.45-7.58,10.06-14.62,17.77-20.93,22.92C1386.71,1701.34,1379.77,1704.11,1372.78,1704.11Z" transform="translate(-100.66 -106)"/><path class="cls-4" d="M1429.62,1594.41q10.92,0,18.2,5.74a18.47,18.47,0,0,1,7.28,15.26q0,7-3.78,9.52t-9.94,2.52c.37-1.49.7-3.13,1-4.9a31.59,31.59,0,0,0,.42-4.9,19.51,19.51,0,0,0-3.08-11.06q-3.09-4.62-10.64-4.62-7.85,0-16,5.46a75.05,75.05,0,0,0-15.68,14.56,127,127,0,0,0-13.44,19.74,119.93,119.93,0,0,0-9.24,21,60.73,60.73,0,0,0-3.36,18.48q0,10.92,7.56,10.92,6.43,0,14-6a114.3,114.3,0,0,0,15.54-15.4q8-9.37,15.26-19.46t12.88-18.48c.74-1.12,1.21-1.68,1.4-1.68a34.15,34.15,0,0,1,4.34,1.12,16.55,16.55,0,0,1,4.62,2.24,4.3,4.3,0,0,1,2,3.64q0,2.52-2.52,6.86t-5.6,9.94q-3.09,5.59-5.6,11.34a26.92,26.92,0,0,0-2.52,10.78,16.86,16.86,0,0,0,2.24,8.26,7.68,7.68,0,0,0,7.28,4.06q7.56,0,19.88-11.06t24.92-33.18l2.8,2.8a99.81,99.81,0,0,1-15.12,26.6,78,78,0,0,1-19.74,17.92q-10.5,6.43-20.58,6.44-10.37,0-15.26-6.16a21.13,21.13,0,0,1-4.9-13.44,28.31,28.31,0,0,1,.28-3.78c.18-1.4.37-2.85.56-4.34q-12,16.24-22,24.36t-20.3,8.12a20.52,20.52,0,0,1-14.7-5.74q-6-5.74-6-17.5a60.72,60.72,0,0,1,4.48-21.7,109.52,109.52,0,0,1,12.32-23,129.57,129.57,0,0,1,17.78-20.72,89.39,89.39,0,0,1,21-15,48.36,48.36,0,0,1,22-5.6m0-1a49.63,49.63,0,0,0-22.43,5.7,91.22,91.22,0,0,0-21.24,15.15,131.9,131.9,0,0,0-17.91,20.88,111.51,111.51,0,0,0-12.43,23.17,61.8,61.8,0,0,0-4.55,22.06c0,8.08,2.13,14.21,6.33,18.22a21.59,21.59,0,0,0,15.39,6c7.11,0,14.15-2.81,20.93-8.35,6-4.92,12.71-12.15,19.88-21.52,0,.2,0,.4-.08.6a29.92,29.92,0,0,0-.29,3.91,22.14,22.14,0,0,0,5.12,14.06c3.45,4.34,8.85,6.54,16,6.54,6.87,0,14-2.22,21.1-6.59a79.17,79.17,0,0,0,20-18.15,101.17,101.17,0,0,0,15.27-26.86l.24-.61-.46-.46-2.8-2.8-.93-.93-.65,1.14c-8.3,14.58-16.62,25.66-24.72,32.93s-14.45,10.81-19.21,10.81a6.69,6.69,0,0,1-6.4-3.54,15.94,15.94,0,0,1-2.12-7.78,26,26,0,0,1,2.44-10.38c1.67-3.8,3.54-7.59,5.56-11.26s3.87-6.95,5.59-9.92,2.65-5.48,2.65-7.36a5.26,5.26,0,0,0-2.38-4.45,17.33,17.33,0,0,0-4.9-2.39,35.27,35.27,0,0,0-4.47-1.15H1438c-.64,0-1.12.45-2.23,2.12-3.73,5.59-8.06,11.8-12.86,18.45s-10,13.23-15.21,19.4a114.09,114.09,0,0,1-15.4,15.27c-4.83,3.84-9.34,5.8-13.38,5.8-1.62,0-6.56,0-6.56-9.92a59.94,59.94,0,0,1,3.31-18.17,119.43,119.43,0,0,1,9.17-20.83,126.13,126.13,0,0,1,13.33-19.58,74.58,74.58,0,0,1,15.47-14.37c5.22-3.51,10.4-5.29,15.4-5.29,4.72,0,7.93,1.36,9.81,4.17a18.63,18.63,0,0,1,2.91,10.51,30.79,30.79,0,0,1-.41,4.74c-.27,1.72-.59,3.34-1,4.82l-.31,1.24h1.28c4.29,0,7.82-.91,10.5-2.69s4.22-5.35,4.22-10.35a19.51,19.51,0,0,0-7.66-16.05c-5-3.95-11.35-5.95-18.82-5.95Z" transform="translate(-100.66 -106)"/><path class="cls-3" d="M1525.94,1699.35a22.64,22.64,0,0,1-9.88-2.43,20.09,20.09,0,0,1-8.33-7.89c-2.19-3.62-3.29-8.23-3.29-13.7,0-6.18,1.52-13.22,4.51-20.9a121,121,0,0,1,12.09-22.92,134.38,134.38,0,0,1,17.43-21.08A91.25,91.25,0,0,1,1559,1595a44.69,44.69,0,0,1,21.24-5.8c4,0,7.15.73,9.37,2.18s3.45,3.85,3.45,7a12.41,12.41,0,0,1-.15,2c-.1.59-.24,1.26-.43,2l-.28,1.14-.63-1a7.34,7.34,0,0,0-3.81-3,18.78,18.78,0,0,0-6.4-1,31.76,31.76,0,0,0-17.23,5.38,65.67,65.67,0,0,0-15.56,14.17,120.06,120.06,0,0,0-20.63,38.2A54.31,54.31,0,0,0,1525,1672c0,4,.91,7.17,2.69,9.49a8.23,8.23,0,0,0,6.89,3.45c4.89,0,11-3.16,18-9.4s14.48-15.29,21.89-26.77a223.57,223.57,0,0,0,20.11-40.51c4.08-10.77,8.37-21.89,12.74-33s8.81-22,13.31-32.35,8.85-19.66,13-27.75a118.25,118.25,0,0,1,12.1-19.41c4-4.93,7.43-7.32,10.61-7.32a5.68,5.68,0,0,1,4.29,2,7.06,7.06,0,0,1,1.81,5c0,3.08-1.53,8.14-4.66,15.45-3,7.13-7.11,15.8-12,25.79s-10.17,20.94-15.54,32.61-10.6,23.73-15.53,35.82a308.84,308.84,0,0,0-12,35.08,118.67,118.67,0,0,0-4.6,30.81,60.48,60.48,0,0,0,.83,11.65c.5,2.37,2.18,3.53,5.11,3.53,3.8,0,8.33-1.67,13.45-5a72.29,72.29,0,0,0,15.57-14.19,94.77,94.77,0,0,0,13.64-22l.26-.57,4.16,3.12-.13.35a90.85,90.85,0,0,1-14.64,25.76,82.39,82.39,0,0,1-19.87,18c-7,4.42-13.87,6.66-20.28,6.66-7.07,0-12.06-2.39-14.85-7.11a28,28,0,0,1-4.13-14.39,75.37,75.37,0,0,1,1.41-12.69c.77-4.31,1.8-9.06,3.09-14.17a204.69,204.69,0,0,1-17.34,24,106.57,106.57,0,0,1-19.84,18.71C1538.07,1697.06,1531.8,1699.35,1525.94,1699.35Z" transform="translate(-100.66 -106)"/><path class="cls-4" d="M1656.42,1488.85a5.2,5.2,0,0,1,3.92,1.82,6.53,6.53,0,0,1,1.68,4.62q0,4.49-4.62,15.26t-12,25.76q-7.42,15-15.54,32.62t-15.54,35.84a307.31,307.31,0,0,0-12,35.14,118.46,118.46,0,0,0-4.62,30.94,60.65,60.65,0,0,0,.84,11.76c.56,2.61,2.42,3.92,5.6,3.92q5.88,0,13.72-5a72.72,72.72,0,0,0,15.68-14.28,95,95,0,0,0,13.72-22.12l3.36,2.52a90,90,0,0,1-14.56,25.62,81.77,81.77,0,0,1-19.74,17.92q-10.5,6.57-20,6.58-10.37,0-14.42-6.86a27.41,27.41,0,0,1-4.06-14.14,74.71,74.71,0,0,1,1.4-12.6q1.39-7.85,3.92-17.36a206.65,206.65,0,0,1-19,26.74,105.82,105.82,0,0,1-19.74,18.62q-9.66,6.72-18.34,6.72a22,22,0,0,1-9.66-2.38,19.43,19.43,0,0,1-8.12-7.7q-3.23-5.32-3.22-13.44,0-9.24,4.48-20.72a119.32,119.32,0,0,1,12-22.82,132.7,132.7,0,0,1,17.36-21,90.29,90.29,0,0,1,20.44-15.4,43.93,43.93,0,0,1,21-5.74q5.88,0,9.1,2.1c2.14,1.4,3.22,3.59,3.22,6.58a12.42,12.42,0,0,1-.14,2c-.1.56-.24,1.21-.42,2A7.84,7.84,0,0,0,1588,1599a19.3,19.3,0,0,0-6.58-1,32.09,32.09,0,0,0-17.5,5.46,65.87,65.87,0,0,0-15.68,14.28,120.8,120.8,0,0,0-20.72,38.36q-2.94,9.38-2.94,15.82,0,6.16,2.8,9.8a8.75,8.75,0,0,0,7.28,3.64q7.56,0,18.34-9.52t22-26.88a223.26,223.26,0,0,0,20.16-40.6q6.15-16.25,12.74-33t13.3-32.34q6.72-15.54,13-27.72a117.16,117.16,0,0,1,12-19.32q5.73-7.14,10.22-7.14m0-1c-3.34,0-6.94,2.46-11,7.51a118.12,118.12,0,0,0-12.15,19.49c-4.19,8.1-8.58,17.45-13,27.78s-9,21.3-13.31,32.37-8.66,22.28-12.75,33a222.79,222.79,0,0,1-20.06,40.41c-7.38,11.45-14.72,20.42-21.8,26.68s-12.92,9.27-17.68,9.27a7.76,7.76,0,0,1-6.49-3.25c-1.72-2.23-2.59-5.33-2.59-9.19a54,54,0,0,1,2.89-15.52,116.34,116.34,0,0,1,8.19-19.3,114.9,114.9,0,0,1,12.36-18.73,64.9,64.9,0,0,1,15.44-14.07,31.25,31.25,0,0,1,17-5.3,18.32,18.32,0,0,1,6.23.92,6.8,6.8,0,0,1,3.56,2.81l1.25,2,.57-2.28c.19-.75.33-1.44.43-2a12.49,12.49,0,0,0,.16-2.13c0-3.33-1.24-5.83-3.67-7.42s-5.56-2.26-9.65-2.26a45.19,45.19,0,0,0-21.48,5.86,91.44,91.44,0,0,0-20.66,15.57,133.82,133.82,0,0,0-17.49,21.15,120.77,120.77,0,0,0-12.14,23c-3,7.75-4.55,14.84-4.55,21.09,0,5.57,1.13,10.26,3.36,14a20.57,20.57,0,0,0,8.54,8.08,23.18,23.18,0,0,0,10.1,2.48c6,0,12.33-2.32,18.91-6.9a106.94,106.94,0,0,0,19.93-18.8,201.4,201.4,0,0,0,15.74-21.42c-1,4-1.75,7.75-2.37,11.22a76.27,76.27,0,0,0-1.41,12.78,28.51,28.51,0,0,0,4.2,14.65c2.88,4.87,8,7.35,15.28,7.35,6.5,0,13.42-2.27,20.55-6.74a82.91,82.91,0,0,0,20-18.13,91.62,91.62,0,0,0,14.73-25.9l.26-.7-.6-.45-3.36-2.52-1-.75-.51,1.13a94.71,94.71,0,0,1-13.57,21.89,72.29,72.29,0,0,1-15.46,14.09c-5,3.24-9.48,4.88-13.18,4.88-3.55,0-4.34-1.79-4.62-3.13a59.47,59.47,0,0,1-.82-11.55,118.16,118.16,0,0,1,4.58-30.68,309.77,309.77,0,0,1,12-35c4.93-12.09,10.15-24.13,15.53-35.8s10.59-22.63,15.52-32.6,9-18.68,12.07-25.81c3.16-7.38,4.7-12.5,4.7-15.65a7.55,7.55,0,0,0-2-5.3,6.17,6.17,0,0,0-4.65-2.14Z" transform="translate(-100.66 -106)"/><path class="cls-3" d="M1700.1,1703.27c-11.48,0-20.23-3.21-26-9.55s-8.67-14.2-8.67-23.43c0-8.43,2.13-17.45,6.34-26.81a111.72,111.72,0,0,1,16.87-26.44,97.61,97.61,0,0,1,23.23-20.12c8.44-5.16,16.91-7.77,25.18-7.77a22.89,22.89,0,0,1,12.16,3.43c3.78,2.33,5.7,7.09,5.7,14.15a35.91,35.91,0,0,1-6.39,20.3,65.73,65.73,0,0,1-16.64,16.78,100,100,0,0,1-22.52,12,93.54,93.54,0,0,1-24,5.73c-.33,1.72-.59,3.37-.76,4.91a43.36,43.36,0,0,0-.27,4.71,36.42,36.42,0,0,0,1,8.28,21.09,21.09,0,0,0,3.42,7.53,16.33,16.33,0,0,0,6.66,5.29,25.89,25.89,0,0,0,10.58,1.92,46.55,46.55,0,0,0,23.54-6.79,91.24,91.24,0,0,0,21.72-18,118.2,118.2,0,0,0,17-24.53l.27-.53,4.16,3.12-.17.36a105.54,105.54,0,0,1-19.27,29.26,92.11,92.11,0,0,1-25.34,19.28A61.35,61.35,0,0,1,1700.1,1703.27Zm36.12-104.44c-4.36,0-9.07,1.71-14,5.09a72.27,72.27,0,0,0-14.46,13.49,118.88,118.88,0,0,0-12.55,18.4,92.47,92.47,0,0,0-8.09,19.14,126.58,126.58,0,0,0,16.11-7.09,123.26,123.26,0,0,0,18.26-11.57,68.19,68.19,0,0,0,14.46-14.73,28.77,28.77,0,0,0,5.65-16.79,8.15,8.15,0,0,0-1-4.49C1739.91,1599.32,1738.45,1598.83,1736.22,1598.83Z" transform="translate(-100.66 -106)"/><path class="cls-4" d="M1737.06,1589.65A22.29,22.29,0,0,1,1749,1593q5.46,3.36,5.46,13.72a35.27,35.27,0,0,1-6.3,20,65.12,65.12,0,0,1-16.52,16.66,99.09,99.09,0,0,1-22.4,11.9,92.41,92.41,0,0,1-24.22,5.74q-.57,2.81-.84,5.32a42.45,42.45,0,0,0-.28,4.76,36.49,36.49,0,0,0,1,8.4,21.28,21.28,0,0,0,3.5,7.7,16.73,16.73,0,0,0,6.86,5.46,26.26,26.26,0,0,0,10.78,2,46.83,46.83,0,0,0,23.8-6.86,91.29,91.29,0,0,0,21.84-18.06,118.73,118.73,0,0,0,17.08-24.64l3.36,2.52a104.61,104.61,0,0,1-19.18,29.12,91.57,91.57,0,0,1-25.2,19.18,60.65,60.65,0,0,1-27.58,6.86q-17.08,0-25.62-9.38t-8.54-23.1q0-12.6,6.3-26.6a110.23,110.23,0,0,1,16.8-26.32,96.56,96.56,0,0,1,23.1-20q12.6-7.69,24.92-7.7m-50.68,66.08a130.3,130.3,0,0,0,35.42-19,68.48,68.48,0,0,0,14.56-14.84,29.18,29.18,0,0,0,5.74-17.08A8.61,8.61,0,0,0,1741,1600q-1.12-1.68-4.76-1.68-6.72,0-14.28,5.18a72.35,72.35,0,0,0-14.56,13.58,118.71,118.71,0,0,0-12.6,18.48,91.89,91.89,0,0,0-8.4,20.16m50.68-67.08c-8.36,0-16.92,2.64-25.45,7.84a98.38,98.38,0,0,0-23.34,20.23,111.91,111.91,0,0,0-17,26.56c-4.24,9.42-6.38,18.51-6.38,27,0,9.36,3,17.36,8.8,23.77s14.73,9.71,26.36,9.71a61.93,61.93,0,0,0,28-7,92.55,92.55,0,0,0,25.47-19.39A106.06,106.06,0,0,0,1773,1648l.33-.73-.64-.48-3.36-2.52-1-.71-.54,1a118.07,118.07,0,0,1-16.94,24.44,90.58,90.58,0,0,1-21.6,17.86,45.94,45.94,0,0,1-23.29,6.73,25.37,25.37,0,0,1-10.37-1.87,15.76,15.76,0,0,1-6.46-5.14,20.3,20.3,0,0,1-3.34-7.34,36,36,0,0,1-1-8.17,42.29,42.29,0,0,1,.27-4.65c.15-1.42.38-2.94.68-4.51a93.83,93.83,0,0,0,23.74-5.73,100.1,100.1,0,0,0,22.63-12A66.3,66.3,0,0,0,1749,1627.3a36.41,36.41,0,0,0,6.47-20.57c0-7.25-2-12.15-5.94-14.57a23.33,23.33,0,0,0-12.42-3.51Zm-49.18,65.5a92.55,92.55,0,0,1,7.77-18.1,119.23,119.23,0,0,1,12.49-18.32,72.42,72.42,0,0,1,14.36-13.4c4.85-3.32,9.46-5,13.72-5,1.41,0,3.24.21,3.92,1.23a7.69,7.69,0,0,1,1,4.21,28.28,28.28,0,0,1-5.56,16.5,67.85,67.85,0,0,1-14.35,14.62,123.69,123.69,0,0,1-18.19,11.53,130.26,130.26,0,0,1-15.12,6.73Z" transform="translate(-100.66 -106)"/></svg>